<?xml version="1.0" standalone="no"?>
<!DOCTYPE svg PUBLIC "-//W3C//DTD SVG 20010904//EN"
 "http://www.w3.org/TR/2001/REC-SVG-20010904/DTD/svg10.dtd">
<svg version="1.0" xmlns="http://www.w3.org/2000/svg"
 width="408.000000pt" height="408.000000pt" viewBox="0 0 408.000000 408.000000"
 preserveAspectRatio="xMidYMid meet">
<metadata>
Created by potrace 1.11, written by Peter Selinger 2001-2013
</metadata>
<g transform="translate(0.000000,408.000000) scale(0.100000,-0.100000)"
fill="#000000" stroke="none">
<path d="M2128 4065 c-2 -3 -24 -7 -49 -10 -59 -7 -87 -13 -99 -20 -6 -3 -10
0 -10 7 -1 8 -6 6 -15 -6 -9 -11 -15 -14 -15 -7 0 9 -5 8 -16 -3 -8 -9 -19
-14 -24 -11 -4 3 -11 -2 -14 -11 -3 -8 -10 -13 -15 -10 -5 4 -15 0 -23 -7 -7
-7 -21 -16 -30 -20 -10 -3 -18 -11 -18 -17 0 -6 -4 -9 -9 -5 -5 3 -16 -4 -24
-15 -7 -11 -17 -17 -20 -13 -4 3 -7 1 -7 -5 0 -7 -7 -12 -15 -12 -8 0 -15 -7
-15 -15 0 -8 -3 -14 -7 -13 -14 2 -48 -15 -56 -29 -5 -7 -12 -11 -17 -8 -5 3
-11 1 -15 -5 -4 -6 -11 -8 -16 -5 -5 4 -9 1 -9 -4 0 -6 -7 -11 -15 -11 -8 0
-15 -4 -15 -10 0 -5 -6 -10 -13 -10 -8 0 -26 -15 -42 -34 -16 -19 -31 -33 -35
-31 -3 2 -13 -10 -23 -27 -15 -25 -15 -29 -2 -18 26 21 27 5 1 -23 -13 -14
-21 -28 -19 -31 9 -9 -18 -36 -31 -30 -6 3 -2 -2 8 -10 17 -14 17 -16 3 -16
-10 0 -15 -7 -12 -20 2 -11 0 -20 -6 -20 -5 0 -9 -8 -9 -17 0 -15 2 -14 14 2
8 11 12 23 10 27 -6 9 36 32 44 24 3 -3 0 -6 -7 -6 -7 0 -9 -4 -6 -10 4 -6 -1
-7 -12 -3 -16 6 -17 5 -3 -12 12 -15 12 -17 1 -10 -11 6 -13 4 -8 -9 4 -10 1
-19 -8 -22 -8 -4 -15 -13 -15 -21 0 -8 5 -11 12 -7 7 4 8 3 4 -5 -4 -6 -12 -9
-17 -6 -5 4 -9 -1 -9 -9 0 -9 -4 -16 -10 -16 -5 0 -10 -7 -10 -15 0 -8 -5 -15
-11 -15 -5 0 -8 -4 -5 -9 8 -13 -4 -42 -15 -35 -5 3 -6 -3 -2 -12 4 -10 2 -15
-4 -11 -5 3 -10 0 -10 -8 0 -18 23 -20 31 -2 4 6 4 1 0 -13 -3 -14 -8 -36 -11
-49 -4 -15 -2 -22 5 -17 6 3 12 0 15 -6 3 -10 7 -10 20 1 14 11 17 11 18 0 1
-8 1 -18 0 -22 -1 -5 2 -6 7 -3 5 3 16 -4 25 -15 9 -10 14 -19 12 -19 -3 0 14
-20 37 -44 24 -24 46 -42 49 -40 4 2 10 -4 13 -13 6 -15 8 -15 16 -3 7 11 10
6 10 -20 0 -27 3 -31 10 -20 8 13 11 11 16 -7 3 -12 5 -25 4 -29 -1 -4 4 -10
10 -14 6 -4 12 -28 12 -54 0 -25 3 -44 6 -42 4 2 7 -29 6 -69 -1 -76 -6 -91
-58 -150 -14 -17 -22 -33 -17 -38 5 -5 3 -19 -4 -33 -7 -15 -11 -54 -9 -106 2
-45 0 -85 -5 -88 -9 -5 -18 -44 -27 -120 -3 -25 -7 -50 -9 -57 -2 -6 -1 -13 2
-16 3 -3 6 -59 8 -124 3 -123 4 -130 30 -203 16 -47 76 -171 85 -180 3 -3 7
-15 7 -27 1 -12 11 -31 21 -41 14 -14 20 -34 21 -69 0 -26 4 -79 7 -118 7 -84
7 -138 1 -185 -3 -19 -6 -48 -6 -65 -1 -28 -4 -26 -46 38 -25 38 -69 93 -99
122 -29 29 -57 66 -60 81 -4 16 -16 47 -27 71 -14 32 -17 48 -9 68 16 41 21
76 19 135 -2 72 -1 206 3 297 4 91 -6 103 -62 78 -23 -10 -44 -23 -48 -29 -11
-17 -83 -63 -122 -79 -37 -15 -178 -16 -215 -3 -63 24 -142 61 -157 74 -10 8
-18 12 -18 8 0 -3 -11 0 -24 9 -19 13 -25 13 -34 2 -12 -14 -17 -61 -9 -87 7
-28 18 -85 21 -115 2 -16 5 -30 6 -30 1 0 3 -49 5 -110 5 -133 7 -155 15 -155
18 0 13 -92 -9 -157 -17 -54 -19 -80 -15 -190 9 -216 0 -337 -38 -466 -6 -23
-12 -45 -14 -49 -1 -5 -2 -9 -4 -10 -12 -16 -20 -117 -10 -123 7 -4 7 -13 0
-25 -6 -11 -6 -21 -1 -24 5 -3 11 -17 13 -31 3 -14 1 -22 -5 -18 -5 3 -7 0 -5
-8 3 -8 11 -13 17 -12 16 4 14 -7 -6 -30 -10 -11 -12 -17 -6 -13 9 5 11 2 7
-8 -3 -8 -17 -20 -32 -28 -89 -46 -117 -79 -141 -166 -11 -39 13 -122 35 -122
8 0 14 -3 14 -7 0 -10 15 -11 185 -16 77 -2 149 -8 160 -14 11 -6 34 -13 50
-14 17 -2 33 -8 37 -14 5 -7 8 -7 8 0 0 12 40 12 60 0 8 -5 11 -4 7 2 -9 14
35 16 383 15 168 0 310 4 315 8 13 9 168 6 185 -5 9 -5 11 -4 6 3 -5 8 1 11
18 10 15 -1 26 -6 26 -9 0 -4 13 -4 30 1 21 6 30 5 30 -3 0 -8 3 -8 8 -2 7 10
192 14 192 4 0 -3 15 -6 33 -6 71 0 127 -7 127 -16 0 -5 9 -7 20 -4 11 3 20 2
20 -2 0 -9 46 -12 243 -14 134 -2 180 1 186 11 10 16 71 33 93 26 10 -3 18 -2
18 3 0 8 59 14 162 17 32 0 58 3 58 6 0 3 12 6 28 7 112 11 186 52 197 111 2
9 4 17 5 17 0 0 3 36 5 80 6 96 9 116 19 133 4 7 2 12 -5 12 -7 0 -10 3 -6 6
7 7 -28 80 -43 89 -6 4 -8 11 -5 16 4 5 2 9 -3 9 -5 0 -12 11 -14 25 -3 14 -2
25 2 25 4 0 7 6 8 13 0 6 3 24 6 40 7 31 -21 140 -34 132 -4 -3 -7 6 -5 20 1
14 -2 25 -6 25 -5 0 -9 7 -9 15 0 8 -5 15 -11 15 -5 0 -7 5 -4 10 3 6 3 16 -2
23 -4 6 -8 14 -9 17 -11 37 -18 50 -25 50 -4 0 -6 9 -4 20 2 11 0 18 -6 15 -5
-4 -9 -2 -9 3 0 5 -17 31 -38 58 -32 41 -67 106 -124 229 -5 11 -10 30 -11 43
0 12 -4 22 -7 22 -4 0 -7 7 -8 15 -1 8 -3 22 -4 30 -1 8 -4 15 -8 15 -3 0 -6
8 -7 18 -1 9 -3 24 -6 32 -2 8 -7 29 -12 45 -4 17 -11 35 -15 40 -7 10 -12 74
-13 153 -1 23 -3 42 -6 42 -3 0 -6 17 -7 38 0 21 -4 47 -8 58 -5 10 -10 40
-12 66 -2 26 -13 64 -25 84 -11 20 -17 39 -14 42 3 3 -2 14 -12 24 -9 10 -13
18 -8 18 4 0 0 11 -9 25 -9 14 -14 30 -11 35 3 6 1 10 -5 10 -6 0 -8 5 -5 10
3 6 1 10 -5 10 -7 0 -10 7 -7 15 4 8 2 17 -4 21 -6 3 -8 12 -5 20 3 8 1 14 -5
14 -6 0 -7 5 -4 10 3 6 -1 13 -9 16 -9 3 -14 10 -11 14 3 5 -2 16 -11 24 -8 9
-12 16 -8 16 3 0 1 6 -5 13 -6 8 -8 17 -4 20 3 4 1 7 -5 7 -7 0 -12 7 -12 16
0 8 -4 12 -10 9 -5 -3 -10 3 -10 14 0 12 -4 21 -9 21 -5 0 -12 7 -15 16 -3 8
-2 12 4 9 5 -3 3 5 -4 19 -7 14 -14 49 -15 78 -1 29 -3 60 -5 68 -14 61 -19
80 -25 80 -4 0 -8 10 -9 23 -2 29 -9 71 -12 75 -1 1 -3 5 -4 10 -3 11 -27 85
-33 102 -4 8 -7 17 -8 20 -1 3 -4 12 -8 20 -14 36 -25 90 -16 85 5 -4 9 3 9
14 0 12 6 21 13 21 8 0 8 3 1 8 -15 10 -13 54 3 48 16 -6 17 16 2 31 -7 7 -6
14 4 24 8 8 12 23 10 34 -11 66 -3 151 15 148 7 -2 12 7 12 21 0 13 7 40 15
60 8 20 12 36 9 36 -4 0 5 11 20 25 22 20 25 29 17 39 -9 10 -8 15 4 20 9 3
13 11 10 17 -4 6 3 13 15 16 13 4 19 11 16 20 -3 8 -6 17 -6 19 0 2 -7 4 -15
4 -8 0 -15 7 -15 15 0 8 -6 15 -12 15 -7 0 -22 13 -33 29 -10 16 -22 28 -26
25 -4 -2 -14 6 -22 19 -8 12 -32 40 -52 62 -68 72 -117 139 -106 143 15 5 -35
52 -54 52 -7 0 -20 7 -29 15 -8 9 -18 16 -21 15 -3 0 -6 0 -7 1 -12 4 -59 10
-85 11 -18 1 -33 5 -33 8 0 3 -18 7 -40 8 -23 2 -51 7 -64 12 -15 5 -27 5 -34
-2 -6 -6 -12 -6 -16 1 -4 6 -12 11 -17 11 -6 0 -7 -4 -4 -10 4 -7 -2 -7 -18
-1 -14 6 -27 8 -29 6z m729 -461 c-3 -3 -12 -4 -19 -1 -8 3 -5 6 6 6 11 1 17
-2 13 -5z"/>
<path d="M1395 3620 c-3 -5 -1 -10 4 -10 6 0 11 5 11 10 0 6 -2 10 -4 10 -3 0
-8 -4 -11 -10z"/>
</g>
</svg>
